<?xml version="1.0" encoding="UTF-8" standalone="no"?>
<svg width="24px" height="24px" viewBox="0 0 24 24" version="1.1" xmlns="http://www.w3.org/2000/svg" xmlns:xlink="http://www.w3.org/1999/xlink">
    <!-- Generator: Sketch 39 (31667) - http://www.bohemiancoding.com/sketch -->
    <title>Icons/Flags/England</title>
    <desc>Created with Sketch.</desc>
    <defs></defs>
    <g id="♻️-Icons" stroke="none" stroke-width="1" fill="none" fill-rule="evenodd">
        <g id="Icons/Flags/England">
            <polygon id="Bottom-left" fill="#FDFDFD" points="10.5 14 10.5 12.5 9 12.5 3 16.5 3 18 4.5 18"></polygon>
            <rect id="Background" fill="#1D1D1D" x="2" y="5" width="20" height="14" rx="1"></rect>
            <rect id="Red" fill="#6EA7D6" x="3" y="6" width="18" height="12"></rect>
            <path d="M11,14 L11,12.5 L9,12.5 L3,16.5 L3,18 L5,18 L11,14 Z M13,14 L13,12.5 L15,12.5 L21,16.5 L21,18 L19,18 L13,14 Z M21,7.5 L21,6 L19,6 L13,10 L13,11.5 L15,11.5 L21,7.5 Z M3,7.5 L3,6 L5,6 L11,10 L11,11.5 L9,11.5 L3,7.5 Z" id="Combined-Shape" fill="#FDFDFD"></path>
            <path d="M3,17.6666667 L10,13 L10,14 L4,18 L3,18 L3,17.6666667 Z M20,6 L14,10 L14,11 L21,6.33333333 L21,6 L20,6 Z M3,7 L3,6 L9,10 L9,11 L3,7 Z M15,14 L15,13 L21,17 L21,18 L15,14 Z" id="Combined-Shape" fill="#FF635A"></path>
            <g id="Group" transform="translate(3.000000, 6.000000)">
                <polygon id="Rectangle-284" fill="#FDFDFD" points="7 8 0 8 0 4 7 4 7 0 11 0 11 4 18 4 18 8 11 8 11 12 7 12"></polygon>
                <polygon id="Rectangle-284" fill="#FF635A" points="8 7 0 7 0 5 8 5 8 0 10 0 10 5 18 5 18 7 10 7 10 12 8 12"></polygon>
            </g>
        </g>
    </g>
</svg>