<?xml version="1.0" encoding="UTF-8" standalone="no"?>
<svg id="staywelcome-logo" width="204px" height="60px" viewBox="0 0 204 60" version="1.1" xmlns="http://www.w3.org/2000/svg" xmlns:xlink="http://www.w3.org/1999/xlink">
    <!-- Generator: Sketch 3.8.3 (29802) - http://www.bohemiancoding.com/sketch -->
    <title>logo</title>
    <desc>Created with Sketch.</desc>
    <defs>
        <polygon id="path-1" points="0.048 0.5088 0.048 38.8072 33.0184 38.8072 33.0184 0.5088 0.048 0.5088"></polygon>
    </defs>
    <g id="Page-1" stroke="none" stroke-width="1" fill="none" fill-rule="evenodd">
        <g id="logo">
            <g id="butterfly">
                <g id="wing-left">
                    <polyline id="Fill-1" fill="#66C2E2" points="6.6696 28.3504 14.004 5.0496 33.0184 21.3088 6.6696 28.3504"></polyline>
                    <polyline id="Fill-2" fill="#8FD1E8" points="23.0888 59.6072 8.9 46.4464 33.0184 21.3088 23.0888 59.6072"></polyline>
                    <polyline id="Fill-4" fill="#3BA5D1" points="0 24.5968 33.0184 21.3088 7.1592 53.4752 0 25.5968"></polyline>
                </g>
                <g id="wing-right">
                    <polyline id="Fill-6" fill="#8FD1E8" points="42.948 59.6072 33.0184 21.3088 57.1376 46.4464 42.948 59.6072"></polyline>
                    <polyline id="Fill-7" fill="#66C2E2" points="59.3672 28.3504 33.0184 21.3088 52.0336 5.0496 59.3672 28.3504"></polyline>
                    <polyline id="Fill-8" fill="#3BA5D1" points="66.0368 24.5968 33.0184 21.3088 58.8784 53.4752 66.0368 24.5968"></polyline>
                </g>
                <g id="body">
                    <polyline id="Fill-9" fill="#635996" points="36.06 5.0464 33.0184 5.0496 29.9768 5.0464 33.0184 60"></polyline>
                </g>
            </g>
            <g id="Group-12" transform="translate(29.600000, 0.000000)" fill="#635996">
                <path d="M51.62,34.5712 C51.5896,34.8168 51.7096,34.9944 51.9776,35.1032 C52.2464,35.2128 52.6552,35.2024 53.2056,35.0744 C53.7536,34.9456 54.4288,34.6664 55.2296,34.2376 C56.0312,33.8072 56.964,33.1576 58.0288,32.2872 C58.7984,31.5712 59.3608,30.8392 59.7144,30.0896 C60.068,29.3408 60.2328,28.6328 60.2088,27.9656 C60.1832,27.2992 59.968,26.7168 59.5608,26.2184 C59.1544,25.72 58.5584,25.3664 57.7728,25.156 C57.4552,25.3832 56.94,25.8752 56.2312,26.6328 C55.5232,27.3912 54.8112,28.2432 54.0992,29.192 C53.3864,30.1392 52.7752,31.1048 52.2648,32.0864 C51.7544,33.0688 51.5392,33.896 51.62,34.5712 L51.62,34.5712 Z M50.4544,2.0952 C50.8816,2.7112 51.156,3.1112 51.2768,3.2968 C51.3968,3.4832 51.5328,3.804 51.6824,4.26 C51.2096,3.9968 50.796,3.7752 50.4448,3.5936 C50.092,3.4136 49.744,3.2576 49.4,3.1272 C49.056,2.9976 48.6824,2.8976 48.2776,2.8288 C47.8728,2.7616 47.4032,2.72 46.8656,2.7088 C45.4504,2.7792 44.1488,3.0536 42.964,3.5312 C41.7784,4.0096 40.8104,4.6144 40.0608,5.344 C39.3112,6.0752 38.8352,6.8968 38.6344,7.8072 C38.4336,8.7192 38.5928,9.648 39.1104,10.5912 C39.6808,11.6296 40.452,12.5904 41.424,13.4736 C42.396,14.3576 43.476,15.196 44.6656,15.9904 C45.8544,16.7856 47.1032,17.5096 48.4112,18.1632 C49.7192,18.816 50.9648,19.4296 52.1528,20.0008 C53.3392,20.572 54.4344,21.0816 55.4392,21.5296 C56.4448,21.9768 57.2264,22.3768 57.7872,22.728 C58.7704,22.0096 59.6984,21.3856 60.5728,20.8576 C61.4456,20.3304 62.3528,19.796 63.2968,19.256 L63.6096,19.2024 C63.752,19.2128 63.788,19.3104 63.7136,19.4944 C63.4464,19.816 63.1208,20.1632 62.74,20.5384 C62.3568,20.9136 61.968,21.2984 61.5712,21.6936 C61.1744,22.0888 60.7856,22.4728 60.4048,22.848 C60.0216,23.2232 59.6768,23.5576 59.3704,23.8512 C60.5416,24.6488 61.352,25.4136 61.7976,26.1456 C62.244,26.8784 62.3928,27.644 62.244,28.444 C62.096,29.2432 61.6544,30.1104 60.9224,31.044 C60.1896,31.9776 59.2056,33.0152 57.9744,34.1544 C57.1736,34.9112 56.2928,35.5952 55.3264,36.2088 C54.36,36.8208 53.4416,37.244 52.572,37.4792 C51.7016,37.7136 50.9632,37.6776 50.3568,37.368 C49.7512,37.0584 49.4392,36.3384 49.4248,35.2048 C49.6712,33.304 50.408,31.4576 51.6368,29.664 C52.8656,27.8712 54.316,26.0232 55.9904,24.1192 C55.9728,24.0192 55.5856,23.7936 54.8296,23.44 C54.072,23.088 53.1024,22.6344 51.9192,22.0792 C50.736,21.5256 49.4272,20.872 47.996,20.1176 C46.5632,19.3656 45.1752,18.5536 43.832,17.6816 C42.4864,16.8104 41.2616,15.8672 40.1608,14.8512 C39.0584,13.8352 38.2544,12.7856 37.7472,11.7016 C37.0864,10.336 36.776,9.0984 36.8176,7.9896 C36.8616,6.8808 37.072,5.9248 37.452,5.12 C37.8312,4.3144 38.2912,3.6592 38.8288,3.1552 C39.3672,2.6496 39.8152,2.2984 40.1744,2.0984 C40.932,1.7288 41.704,1.3896 42.4912,1.0824 C43.2776,0.776 44.0928,0.5856 44.9368,0.5104 C45.7808,0.4344 46.6592,0.5176 47.576,0.7552 C48.4912,0.9944 49.4504,1.4416 50.4544,2.0952 L50.4544,2.0952 Z" id="Fill-11"></path>
            </g>
            <path d="M101.0016,14.6688 C102.4752,14.3144 103.9224,13.9552 105.3416,13.5912 C106.7608,13.228 108.2408,12.8456 109.7776,12.4456 C110.1296,12.42 110.3864,12.5568 110.5448,12.856 C110.7024,13.1568 110.5968,13.3728 110.2264,13.5048 C108.9672,13.8576 107.5232,14.2936 105.8992,14.812 C104.2752,15.3312 102.7464,15.9024 101.3192,16.5248 C101.5664,17.5496 101.7832,18.6056 101.9688,19.6912 C102.1544,20.7784 102.3624,21.844 102.5952,22.8888 C102.8272,23.9328 103.1064,24.9352 103.4304,25.8936 C103.7552,26.8544 104.1616,27.7224 104.6528,28.4976 C105.2344,28.984 105.7768,29.2352 106.2808,29.252 C106.7824,29.2688 107.2384,29.1664 107.6472,28.9408 C108.0536,28.7168 108.4128,28.4144 108.7232,28.0344 C109.032,27.6544 109.2992,27.2904 109.5264,26.9416 C109.7288,26.6672 109.9288,26.6328 110.1256,26.8392 C110.3216,27.0472 110.2336,27.4232 109.8624,27.9688 C109.6944,28.2376 109.4776,28.5336 109.2104,28.8536 C108.9448,29.1744 108.6096,29.4648 108.2088,29.7224 C107.8056,29.98 107.3408,30.18 106.812,30.3224 C106.2816,30.4648 105.6912,30.5056 105.0392,30.4448 C104.2064,30.3816 103.5104,29.8632 102.9528,28.892 C102.3944,27.9216 101.9,26.7584 101.472,25.4032 C101.044,24.0488 100.6672,22.624 100.3408,21.132 C100.012,19.6392 99.6944,18.3 99.3856,17.1136 C97.8808,17.5088 96.7832,17.8168 96.0896,18.0392 C95.3952,18.2608 94.8952,18.416 94.5888,18.5024 C94.2832,18.5888 94.0712,18.608 93.9568,18.5584 C93.8408,18.5104 93.624,18.392 93.3064,18.2048 C93.312,18.032 93.2936,17.872 93.2512,17.724 C93.2072,17.5768 93.1856,17.4512 93.1872,17.348 C93.1864,17.2448 93.2392,17.1328 93.3432,17.012 C93.448,16.8904 93.668,16.768 94.0024,16.6408 C94.5,16.4184 95.2416,16.2144 96.2272,16.028 C97.2128,15.8424 98.1632,15.6024 99.0768,15.308 C98.8584,14.2448 98.68,13.4144 98.5432,12.8184 C98.4064,12.2224 98.2808,11.7024 98.1696,11.256 C98.0568,10.8112 97.9552,10.3728 97.864,9.9408 C97.7712,9.5096 97.6664,8.9424 97.5464,8.2408 C97.5176,8.0736 97.5912,7.932 97.768,7.8152 C97.9432,7.7 98.152,7.612 98.392,7.5536 C98.6328,7.4952 98.8632,7.4904 99.0864,7.5376 C99.3088,7.5864 99.4688,7.688 99.5664,7.8432 C99.7224,8.1256 99.8664,8.5576 100.0016,9.136 C100.136,9.716 100.268,10.3296 100.3976,10.9792 C100.5264,11.6272 100.648,12.2864 100.7624,12.9552 C100.8768,13.624 100.956,14.196 101.0016,14.6688" id="Fill-13" fill="#635996"></path>
            <path d="M110.8112,26.3096 C111.1696,26.3168 111.6808,25.972 112.3472,25.272 C113.012,24.5736 113.6752,23.6432 114.3336,22.4808 C114.9904,21.3192 115.5416,20.0024 115.988,18.532 C116.432,17.0624 116.6296,15.5576 116.58,14.0176 C116.4416,14.0416 116.2424,14.076 115.9824,14.12 C115.7224,14.1648 115.4344,14.3168 115.1224,14.5768 C113.948,15.6384 112.988,16.8088 112.2432,18.0888 C111.4992,19.3696 110.9552,20.5808 110.616,21.7224 C110.276,22.8648 110.1256,23.8632 110.1632,24.716 C110.2032,25.5704 110.4176,26.1016 110.8112,26.3096 L110.8112,26.3096 Z M118.4136,11.8976 C118.412,12.104 118.4056,12.536 118.3936,13.1912 C118.3792,13.848 118.3768,14.6136 118.3848,15.4896 C118.392,16.3656 118.4232,17.2816 118.48,18.2352 C118.5352,19.1896 118.6256,20.0864 118.7512,20.9248 C118.8776,21.764 119.052,22.4656 119.2728,23.0288 C119.4936,23.5936 119.7552,23.9192 120.0552,24.0048 C120.9152,24.2376 121.7104,23.972 122.4368,23.2112 C123.1624,22.4496 123.9728,21.34 124.8648,19.8792 C124.9696,19.8608 125.0008,19.9936 124.96,20.276 C124.9184,20.5584 124.8296,20.8744 124.6928,21.224 C124.556,21.5752 124.42,21.9256 124.2848,22.2752 C124.148,22.6256 124.036,22.86 123.9504,22.9776 C123.7288,23.36 123.3944,23.804 122.9456,24.3112 C122.4968,24.8184 121.9992,25.2472 121.4528,25.5992 C120.9056,25.9504 120.3608,26.1552 119.8176,26.2136 C119.2736,26.2736 118.78,26.048 118.336,25.5376 C118.0936,25.1672 117.9048,24.692 117.7712,24.112 C117.6368,23.5336 117.5352,22.94 117.4664,22.332 C117.3976,21.7248 117.3552,21.1632 117.34,20.6496 C117.324,20.136 117.312,19.76 117.3072,19.5192 C116.8016,20.9488 116.1808,22.328 115.4448,23.6584 C114.7088,24.9888 113.9472,26.0656 113.1592,26.8888 C112.3712,27.712 111.6,28.2128 110.8464,28.3936 C110.0912,28.5744 109.4288,28.2488 108.8584,27.4168 C108.468,26.5896 108.3008,25.6112 108.3568,24.484 C108.4144,23.356 108.612,22.3152 108.948,21.3624 C109.4704,20.0344 110.044,18.8008 110.6712,17.6616 C111.2968,16.5216 111.9992,15.524 112.7816,14.668 C113.564,13.8112 114.4216,13.14 115.356,12.652 C116.2904,12.1664 117.3088,11.9144 118.4136,11.8976 L118.4136,11.8976 Z" id="Fill-14" fill="#635996"></path>
            <path d="M134.3728,25.0664 C134.2048,25.3352 134.0264,25.5984 133.8392,25.8552 C133.6496,26.1104 133.4736,26.3896 133.312,26.6936 C132.952,27.3048 132.6424,28.0984 132.38,29.0728 C132.1184,30.0456 131.932,31.0928 131.8208,32.2136 C131.708,33.3336 131.6936,34.4464 131.7752,35.5504 C131.856,36.6544 132.048,37.62 132.3512,38.4456 C132.6528,39.272 133.0872,39.8856 133.6568,40.2872 C134.224,40.6888 134.9336,40.7664 135.784,40.5176 C136.1192,40.3904 136.3304,39.9592 136.4184,39.2216 C136.508,38.4832 136.5064,37.5976 136.42,36.5632 C136.332,35.528 136.1912,34.3992 136.0008,33.176 C135.8088,31.952 135.5992,30.784 135.3744,29.6704 C135.1472,28.556 134.9368,27.5848 134.7432,26.7584 C134.5472,25.9304 134.424,25.3672 134.3728,25.0664 L134.3728,25.0664 Z M128.3456,21.7616 C129.2056,21.9928 130.0184,21.2608 130.7808,19.564 C131.5424,17.868 131.9464,15.2608 131.9864,11.744 C131.9808,11.7104 132.0928,11.6912 132.3248,11.6864 C132.5552,11.6808 132.7984,11.6912 133.0528,11.7168 C133.3072,11.7416 133.5464,11.7864 133.7728,11.8512 C133.9984,11.916 134.1152,11.9824 134.1272,12.0488 C134.2128,12.5504 134.2816,13.1576 134.3328,13.8712 C134.3816,14.5864 134.4368,15.3688 134.4928,16.2184 C134.5488,17.0696 134.64,17.9664 134.7648,18.908 C134.8912,19.8504 135.0512,20.7872 135.2448,21.7168 C136.0512,20.788 136.9472,20.032 137.936,19.4504 C138.9256,18.868 139.8968,18.4432 140.8512,18.1768 C141.2264,18.2856 141.4264,18.3624 141.4536,18.4096 C141.4792,18.4568 141.416,18.5624 141.2664,18.7256 C140.012,19.3192 138.9448,20.0176 138.0648,20.8216 C137.1848,21.6264 136.36,22.4904 135.5888,23.4128 C135.772,24.4824 135.9864,25.6336 136.2336,26.8648 C136.4784,28.0952 136.7088,29.3296 136.92,30.5664 C137.132,31.804 137.3312,33.0256 137.5208,34.2328 C137.708,35.4392 137.8248,36.5376 137.8704,37.528 C137.9128,38.5184 137.8816,39.3752 137.7744,40.0992 C137.6656,40.8224 137.4408,41.3344 137.0992,41.6344 C136.8504,41.8488 136.5488,42.0128 136.1928,42.1248 C135.8376,42.2376 135.4744,42.3072 135.1056,42.3368 C134.7344,42.3656 134.3752,42.3496 134.0256,42.2896 C133.6744,42.228 133.38,42.116 133.1376,41.9512 C132.3696,41.428 131.7632,40.6968 131.3176,39.7584 C130.8704,38.8192 130.5472,37.7648 130.3472,36.5952 C130.1464,35.424 130.0792,34.1968 130.1464,32.9128 C130.212,31.628 130.3816,30.3776 130.6552,29.1608 C130.9288,27.944 131.3256,26.8176 131.844,25.7832 C132.364,24.7472 132.9784,23.9112 133.6904,23.2736 C133.4864,21.4504 133.236,19.6688 132.9384,17.9304 C132.7392,18.86 132.3976,19.8816 131.9096,20.9968 C131.4224,22.1128 130.7408,23.0376 129.868,23.772 C128.872,24.4248 127.9536,24.5304 127.1112,24.0888 C126.2672,23.648 125.66,22.8576 125.2856,21.7168 C124.8776,20.376 124.544,19.2624 124.2864,18.3776 C124.0272,17.4928 123.796,16.6552 123.5888,15.864 C123.3808,15.0744 123.1784,14.2488 122.9768,13.388 C122.7776,12.528 122.5128,11.4544 122.1856,10.168 C122.3424,10.0384 122.5984,9.9688 122.9528,9.96 C123.308,9.9504 123.5864,10.0152 123.7896,10.152 C123.8944,10.1344 124.0088,10.3904 124.1344,10.9184 C124.2616,11.448 124.4128,12.128 124.5904,12.9568 C124.768,13.7872 124.976,14.6896 125.2136,15.664 C125.452,16.6384 125.7256,17.5552 126.0328,18.4144 C126.34,19.2744 126.6808,20.016 127.0552,20.64 C127.4304,21.2648 127.86,21.6384 128.3456,21.7616 L128.3456,21.7616 Z" id="Fill-15" fill="#635996"></path>
            <path d="M106.7688,44.4288 L101.6976,58.9 L99.6888,58.9 L95.3208,46.3952 L90.952,58.9 L88.944,58.9 L83.8712,44.4288 L85.6104,44.4288 L90.0208,57.4096 C90.0616,57.1472 90.1032,56.9544 90.144,56.8296 L94.4096,44.4288 L96.232,44.4288 L100.496,56.7888 L100.6208,57.4096 L105.0096,44.4288 L106.7688,44.4288" id="Fill-16" fill="#635996"></path>
            <path d="M118.6016,46.9024 C117.5312,45.9576 116.1752,45.4848 114.5336,45.4848 C112.8904,45.4848 111.5208,45.9576 110.4232,46.9024 C109.3264,47.848 108.6944,49.184 108.5288,50.9088 L120.4536,50.9088 C120.288,49.184 119.6704,47.848 118.6016,46.9024 L118.6016,46.9024 Z M119.864,46.1056 C121.2928,47.5272 122.0064,49.4048 122.0064,51.7368 C122.0064,51.792 122.0024,51.8712 121.9968,51.9752 C121.9896,52.0784 121.9864,52.1512 121.9864,52.192 L108.5496,52.192 C108.7288,53.904 109.364,55.2632 110.4544,56.2712 C111.6136,57.32 113.0976,57.844 114.9048,57.844 C117.1552,57.844 118.86,57.0856 120.0192,55.5672 L121.7168,55.608 C121.0264,56.7816 120.0816,57.6992 118.88,58.3616 C117.68,59.0248 116.3552,59.356 114.9048,59.356 C113.484,59.356 112.176,59.056 110.9824,58.4552 C109.788,57.8552 108.8224,56.964 108.084,55.7848 C107.3448,54.604 106.976,53.2552 106.976,51.7368 C106.976,49.4184 107.7008,47.5448 109.1504,46.116 C110.5992,44.688 112.3936,43.9736 114.5336,43.9736 C116.6584,43.9736 118.4352,44.684 119.864,46.1056 L119.864,46.1056 Z" id="Fill-17" fill="#635996"></path>
            <polyline id="Fill-18" fill="#635996" points="124.6984 37.0792 126.1888 37.0792 126.1888 57.2856 126.4784 58.9 124.988 58.9 124.6984 57.2856 124.6984 37.0792"></polyline>
            <path d="M140.4736,44.8944 C141.6336,45.5504 142.5368,46.4648 143.1864,47.6376 L141.468,47.6376 C140.3776,46.1608 138.7632,45.4224 136.624,45.4224 C134.8424,45.4224 133.3904,45.9712 132.2656,47.068 C131.14,48.1656 130.5784,49.7016 130.5784,51.6752 C130.5784,53.6488 131.14,55.1808 132.2656,56.2712 C133.3904,57.3616 134.8424,57.9064 136.624,57.9064 C138.7632,57.9064 140.3776,57.168 141.468,55.6912 L143.1864,55.6912 C142.5368,56.8648 141.6336,57.7792 140.4736,58.4344 C139.3144,59.0896 138.032,59.4176 136.624,59.4176 C134.484,59.4176 132.6896,58.7072 131.2408,57.2856 C129.7912,55.864 129.0672,53.9936 129.0672,51.6752 C129.0672,49.356 129.7912,47.4824 131.2408,46.0544 C132.6896,44.6248 134.484,43.9112 136.624,43.9112 C138.032,43.9112 139.3144,44.2392 140.4736,44.8944" id="Fill-19" fill="#635996"></path>
            <path d="M146.7472,51.6752 C146.7472,53.6488 147.3096,55.1808 148.4352,56.2712 C149.5592,57.3616 151.012,57.9064 152.7928,57.9064 C154.5728,57.9064 156.0256,57.3616 157.1504,56.2712 C158.2752,55.1808 158.8376,53.6488 158.8376,51.6752 C158.8376,49.7016 158.2752,48.1656 157.1504,47.068 C156.0256,45.9712 154.5728,45.4224 152.7928,45.4224 C151.012,45.4224 149.556,45.9752 148.4248,47.0784 C147.3056,48.1696 146.7472,49.7016 146.7472,51.6752 L146.7472,51.6752 Z M147.42,46.0432 C148.8624,44.6224 150.6528,43.9112 152.7928,43.9112 C154.932,43.9112 156.7224,44.6224 158.1656,46.0432 C159.6072,47.4656 160.3288,49.3424 160.3288,51.6752 C160.3288,53.9936 159.6072,55.864 158.1656,57.2856 C156.7224,58.7072 154.932,59.4176 152.7928,59.4176 C150.6528,59.4176 148.8624,58.7072 147.42,57.2856 C145.9776,55.864 145.2568,53.9936 145.2568,51.6752 C145.2568,49.3424 145.9776,47.4656 147.42,46.0432 L147.42,46.0432 Z" id="Fill-20" fill="#635996"></path>
            <path d="M180.3904,43.8488 C182.212,43.8488 183.692,44.3912 184.8312,45.4744 C185.9688,46.5584 186.5384,48.2112 186.5384,50.4328 L186.5384,58.9 L185.028,58.9 L185.028,50.288 C184.9448,48.6592 184.5168,47.4136 183.7432,46.5512 C182.9704,45.6888 181.7424,45.264 180.0592,45.2776 C179.0928,45.2776 178.2088,45.488 177.4088,45.9088 C176.608,46.3304 175.8352,47.0512 175.0904,48.0728 C175.3104,48.7488 175.4216,49.5568 175.4216,50.4944 L175.4216,58.9 L173.9312,58.9 L173.9312,50.412 C173.9312,47.0304 172.2744,45.34 168.9624,45.34 C167.0296,45.34 165.484,46.1408 164.3248,47.7416 L164.3248,58.9 L162.8128,58.9 L162.8128,44.4288 L164.0344,44.4288 L164.3248,45.8984 C165.7184,44.5736 167.3192,43.9112 169.128,43.9112 C171.5696,43.9112 173.3712,44.884 174.5312,46.8304 C175.372,45.8368 176.2248,45.0912 177.088,44.5944 C177.9504,44.0976 179.0512,43.8488 180.3904,43.8488" id="Fill-21" fill="#635996"></path>
            <path d="M200.4408,46.9024 C199.3704,45.9576 198.0152,45.4848 196.3728,45.4848 C194.7304,45.4848 193.3608,45.9576 192.2632,46.9024 C191.1664,47.848 190.5344,49.184 190.3688,50.9088 L202.2936,50.9088 C202.128,49.184 201.5104,47.848 200.4408,46.9024 L200.4408,46.9024 Z M201.7032,46.1056 C203.1328,47.5272 203.8464,49.4048 203.8464,51.7368 C203.8464,51.792 203.8424,51.8712 203.836,51.9752 C203.8296,52.0784 203.8264,52.1512 203.8264,52.192 L190.3896,52.192 C190.5688,53.904 191.2032,55.2632 192.2944,56.2712 C193.4536,57.32 194.9368,57.844 196.7448,57.844 C198.9952,57.844 200.7,57.0856 201.8592,55.5672 L203.5568,55.608 C202.8664,56.7816 201.9216,57.6992 200.72,58.3616 C199.52,59.0248 198.1952,59.356 196.7448,59.356 C195.324,59.356 194.016,59.056 192.8224,58.4552 C191.628,57.8552 190.6624,56.964 189.924,55.7848 C189.1848,54.604 188.816,53.2552 188.816,51.7368 C188.816,49.4184 189.54,47.5448 190.9904,46.116 C192.4384,44.688 194.2336,43.9736 196.3728,43.9736 C198.4984,43.9736 200.2752,44.684 201.7032,46.1056 L201.7032,46.1056 Z" id="Fill-22" fill="#635996"></path>
        </g>
    </g>
</svg>